<svg xmlns="http://www.w3.org/2000/svg" width="220" height="320" viewBox="205 -3 220 320" version="1.1">
	<path d="M 319 15.951 C 319 34.780, 318.118 39.815, 312.951 50.500 C 307.215 62.358, 300.667 70.279, 282.167 87.737 C 233.626 133.541, 220.700 149.490, 212.349 173.882 C 200.245 209.232, 210.208 251.150, 237.541 279.872 C 265.791 309.559, 307.227 320.752, 346.849 309.399 C 380.320 299.809, 407.263 273.876, 418.412 240.516 C 427.190 214.252, 425.445 184.449, 413.674 159.600 C 411.240 154.460, 407.315 147.385, 404.953 143.877 C 398.917 134.914, 385.921 122.194, 376.581 116.107 C 368.918 111.114, 366.126 110.258, 366.845 113.125 C 369.379 123.226, 370.127 129.392, 369.618 136 C 368.881 145.574, 367.806 149.246, 363.768 155.970 C 355.954 168.984, 338.829 170.857, 327.825 159.901 C 320.707 152.813, 318.517 143.575, 321.200 131.952 C 322.440 126.582, 325.194 120.715, 335.731 101 C 342.979 87.439, 345.842 78.007, 346.671 64.956 C 347.620 50.008, 343.939 33.623, 336.713 20.634 C 332.793 13.589, 322.002 0.087, 320.250 0.036 C 319.301 0.009, 319 3.838, 319 15.951 M 274.787 167.785 C 264.898 178.152, 259.857 191.055, 259.857 206 C 259.857 221.957, 265.011 234.281, 276.389 245.530 C 287.836 256.847, 300.129 262, 315.684 262 C 345.974 262, 369.920 239.465, 371.738 209.250 C 372.043 204.162, 371.994 200, 371.627 200 C 371.260 200, 369.112 201.167, 366.854 202.592 C 355.102 210.011, 337.187 212.945, 324 209.610 C 313.234 206.888, 305.396 202.440, 297.556 194.605 C 289.560 186.614, 285.553 179.875, 282.463 169.225 L 280.353 161.949 274.787 167.785" stroke="none" fill="black" fill-rule="evenodd"/>
</svg>